REM DIRINDEX 1\2,1\3,1\4
REM DIRNAME cjc105,folder01,folder02,folder03
TITLE ""
FILE "DISC1Track01.mp3" MP3
  TRACK 01 AUDIO
    TITLE "0:"
    INDEX 01 00:00:00
  TRACK 02 AUDIO
    TITLE "4:cjc105_0001"
    INDEX 01 00:00:05
  TRACK 03 AUDIO
    TITLE "0:"
    INDEX 01 00:05:20
  TRACK 04 AUDIO
    TITLE "4:cjc105_0002"
    INDEX 01 00:05:61
  TRACK 05 AUDIO
    TITLE "0:"
    INDEX 01 00:11:09
  TRACK 06 AUDIO
    TITLE "4:cjc105_0003"
    INDEX 01 00:11:52
  TRACK 07 AUDIO
    TITLE "0:"
    INDEX 01 00:18:74
  TRACK 08 AUDIO
    TITLE "2:cjc105_0004"
    INDEX 01 00:19:42
  TRACK 09 AUDIO
    TITLE "2:cjc105_0005"
    INDEX 01 00:23:18
  TRACK 10 AUDIO
    TITLE "2:cjc105_0006"
    INDEX 01 00:26:50
  TRACK 11 AUDIO
    TITLE "2:cjc105_0007"
    INDEX 01 00:29:56
  TRACK 12 AUDIO
    TITLE "2:cjc105_0008"
    INDEX 01 00:32:70
  TRACK 13 AUDIO
    TITLE "2:cjc105_0009"
    INDEX 01 00:36:19
  TRACK 14 AUDIO
    TITLE "2:cjc105_0010"
    INDEX 01 00:39:35
  TRACK 15 AUDIO
    TITLE "2:cjc105_0011"
    INDEX 01 00:42:39
  TRACK 16 AUDIO
    TITLE "2:cjc105_0012"
    INDEX 01 00:45:37
  TRACK 17 AUDIO
    TITLE "2:cjc105_0013"
    INDEX 01 00:48:34
  TRACK 18 AUDIO
    TITLE "2:cjc105_0014"
    INDEX 01 00:51:38
  TRACK 19 AUDIO
    TITLE "2:cjc105_0015"
    INDEX 01 00:54:66
  TRACK 20 AUDIO
    TITLE "2:cjc105_0016"
    INDEX 01 00:57:74
  TRACK 21 AUDIO
    TITLE "2:cjc105_0017"
    INDEX 01 01:01:03
  TRACK 22 AUDIO
    TITLE "2:cjc105_0018"
    INDEX 01 01:04:09
  TRACK 23 AUDIO
    TITLE "2:cjc105_0019"
    INDEX 01 01:06:51
  TRACK 24 AUDIO
    TITLE "2:cjc105_0020"
    INDEX 01 01:09:57
  TRACK 25 AUDIO
    TITLE "2:cjc105_0021"
    INDEX 01 01:13:00
  TRACK 26 AUDIO
    TITLE "2:cjc105_0022"
    INDEX 01 01:16:14
  TRACK 27 AUDIO
    TITLE "2:cjc105_0023"
    INDEX 01 01:19:03
  TRACK 28 AUDIO
    TITLE "2:cjc105_0024"
    INDEX 01 01:22:50
  TRACK 29 AUDIO
    TITLE "2:cjc105_0025"
    INDEX 01 01:25:53
  TRACK 30 AUDIO
    TITLE "2:cjc105_0026"
    INDEX 01 01:28:55
  TRACK 31 AUDIO
    TITLE "2:cjc105_0027"
    INDEX 01 01:31:45
  TRACK 32 AUDIO
    TITLE "2:cjc105_0028"
    INDEX 01 01:34:48
  TRACK 33 AUDIO
    TITLE "2:cjc105_0029"
    INDEX 01 01:37:62
  TRACK 34 AUDIO
    TITLE "2:cjc105_0030"
    INDEX 01 01:40:66
  TRACK 35 AUDIO
    TITLE "2:cjc105_0031"
    INDEX 01 01:43:41
  TRACK 36 AUDIO
    TITLE "2:cjc105_0032"
    INDEX 01 01:46:35
  TRACK 37 AUDIO
    TITLE "2:cjc105_0033"
    INDEX 01 01:49:30
  TRACK 38 AUDIO
    TITLE "2:cjc105_0034"
    INDEX 01 01:52:65
  TRACK 39 AUDIO
    TITLE "2:cjc105_0035"
    INDEX 01 01:56:08
  TRACK 40 AUDIO
    TITLE "2:cjc105_0036"
    INDEX 01 01:59:38
  TRACK 41 AUDIO
    TITLE "2:cjc105_0037"
    INDEX 01 02:02:52
  TRACK 42 AUDIO
    TITLE "2:cjc105_0038"
    INDEX 01 02:05:62
  TRACK 43 AUDIO
    TITLE "2:cjc105_0039"
    INDEX 01 02:09:03
  TRACK 44 AUDIO
    TITLE "2:cjc105_0040"
    INDEX 01 02:12:19
  TRACK 45 AUDIO
    TITLE "2:cjc105_0041"
    INDEX 01 02:15:33
  TRACK 46 AUDIO
    TITLE "2:cjc105_0042"
    INDEX 01 02:18:45
  TRACK 47 AUDIO
    TITLE "2:cjc105_0043"
    INDEX 01 02:21:71
  TRACK 48 AUDIO
    TITLE "2:cjc105_0044"
    INDEX 01 02:24:67
  TRACK 49 AUDIO
    TITLE "2:cjc105_0045"
    INDEX 01 02:27:69
  TRACK 50 AUDIO
    TITLE "2:cjc105_0046"
    INDEX 01 02:31:12
  TRACK 51 AUDIO
    TITLE "2:cjc105_0047"
    INDEX 01 02:34:46
  TRACK 52 AUDIO
    TITLE "2:cjc105_0048"
    INDEX 01 02:37:66
  TRACK 53 AUDIO
    TITLE "2:cjc105_0049"
    INDEX 01 02:40:68
  TRACK 54 AUDIO
    TITLE "2:cjc105_0050"
    INDEX 01 02:44:25
  TRACK 55 AUDIO
    TITLE "2:cjc105_0051"
    INDEX 01 02:47:68
  TRACK 56 AUDIO
    TITLE "2:cjc105_0052"
    INDEX 01 02:51:17
  TRACK 57 AUDIO
    TITLE "2:cjc105_0053"
    INDEX 01 02:54:45
  TRACK 58 AUDIO
    TITLE "2:cjc105_0054"
    INDEX 01 02:57:55
  TRACK 59 AUDIO
    TITLE "2:cjc105_0055"
    INDEX 01 03:00:67
  TRACK 60 AUDIO
    TITLE "2:cjc105_0056"
    INDEX 01 03:04:04
  TRACK 61 AUDIO
    TITLE "2:cjc105_0057"
    INDEX 01 03:07:14
  TRACK 62 AUDIO
    TITLE "2:cjc105_0058"
    INDEX 01 03:10:20
  TRACK 63 AUDIO
    TITLE "2:cjc105_0059"
    INDEX 01 03:13:13
  TRACK 64 AUDIO
    TITLE "2:cjc105_0060"
    INDEX 01 03:16:17
  TRACK 65 AUDIO
    TITLE "2:cjc105_0061"
    INDEX 01 03:19:66
  TRACK 66 AUDIO
    TITLE "2:cjc105_0062"
    INDEX 01 03:23:17
  TRACK 67 AUDIO
    TITLE "2:cjc105_0063"
    INDEX 01 03:26:13
  TRACK 68 AUDIO
    TITLE "2:cjc105_0064"
    INDEX 01 03:29:20
  TRACK 69 AUDIO
    TITLE "2:cjc105_0065"
    INDEX 01 03:32:10
  TRACK 70 AUDIO
    TITLE "2:cjc105_0066"
    INDEX 01 03:35:32
  TRACK 71 AUDIO
    TITLE "2:cjc105_0067"
    INDEX 01 03:38:48
  TRACK 72 AUDIO
    TITLE "2:cjc105_0068"
    INDEX 01 03:41:38
  TRACK 73 AUDIO
    TITLE "2:cjc105_0069"
    INDEX 01 03:44:31
  TRACK 74 AUDIO
    TITLE "2:cjc105_0070"
    INDEX 01 03:47:29
  TRACK 75 AUDIO
    TITLE "2:cjc105_0071"
    INDEX 01 03:50:24
  TRACK 76 AUDIO
    TITLE "2:cjc105_0072"
    INDEX 01 03:53:57
  TRACK 77 AUDIO
    TITLE "2:cjc105_0073"
    INDEX 01 03:56:54
  TRACK 78 AUDIO
    TITLE "2:cjc105_0074"
    INDEX 01 04:00:00
  TRACK 79 AUDIO
    TITLE "2:cjc105_0075"
    INDEX 01 04:03:09
  TRACK 80 AUDIO
    TITLE "2:cjc105_0076"
    INDEX 01 04:06:44
  TRACK 81 AUDIO
    TITLE "2:cjc105_0077"
    INDEX 01 04:09:48
  TRACK 82 AUDIO
    TITLE "0:"
    INDEX 01 04:13:07
